# xmcd
# Copyright (C) 1995-1998 Ti Kan
#
# Track frame offsets:
#       150
#       10847
#       27032
#       43178
#       52516
#       54087
#       67617
#       68728
#       74461
#       75697
#       96098
#       96892
#       106090
#       118609
#       120020
#
# Disc length: 1735 seconds
#
# Revision: 0
# Processed by: cddbd v1.5.2PL0 Copyright (c) Steve Scherf et al.
# Submitted via: CD-Transfer v1.0
#
DISCID=a706c50f
DTITLE=Scott-Heron, Gil - G. Scott-Heron
DYEAR=10
DGENRE=
TTITLE0=On Coming From A Broken Home (Pt.1)
TTITLE1=Me And The Devil
TTITLE2=I'm New Here
TTITLE3=Your Soul And Mine
TTITLE4=Parents (Interlude)
TTITLE5=I'll Take Care Of You
TTITLE6=Being Blessed (Interlude)
TTITLE7=
TTITLE8=I Was Guded (Interlude)
TTITLE9=New York Is Killing Me
TTITLE10=
TTITLE11=
TTITLE12=Crutch, The
TTITLE13=I've Been Me (Interlude)
TTITLE14=On Coming From A Broken Home (Pt.2)
EXTD=
EXTT0=
EXTT1=
EXTT2=
EXTT3=
EXTT4=
EXTT5=
EXTT6=
EXTT7=
EXTT8=
EXTT9=
EXTT10=
EXTT11=
EXTT12=
EXTT13=
EXTT14=
PLAYORDER=
